<?xml version="1.0" encoding="utf-8"?>
<!-- Generator: Adobe Illustrator 26.4.1, SVG Export Plug-In . SVG Version: 6.00 Build 0)  -->
<svg version="1.1" id="Layer_1" xmlns="http://www.w3.org/2000/svg" xmlns:xlink="http://www.w3.org/1999/xlink" x="0px" y="0px"
	 viewBox="0 0 157.6 212.9" style="enable-background:new 0 0 157.6 212.9;" xml:space="preserve">
<style type="text/css">
	.st0{fill:#F7BF12;}
	.st1{fill:#121212;}
	.st2{fill:#8F8F8F;}
	.st3{fill:#181818;}
	.st4{fill:#FFFFFF;}
</style>
<g>
	<path class="st0" d="M-72.2-166.6v-58.6h33c6.8,0,12.7,1.1,17.7,3.3c4.9,2.2,8.8,5.4,11.4,9.5c2.7,4.1,4,9.1,4,14.8
		c0,5.7-1.4,10.6-4,14.7c-2.7,4.1-6.5,7.2-11.4,9.4c-4.9,2.2-10.8,3.3-17.7,3.3h-23.2l7.9-7.7v29l0,0
		C-64.3-149-72.2-156.9-72.2-166.6z M-54.6-176l-7.9-8.3h22.2c5.4,0,9.5-1.2,12.2-3.5s4-5.6,4-9.8c0-4.2-1.4-7.5-4-9.8
		c-2.7-2.3-6.8-3.5-12.2-3.5h-22.2l7.9-8.4V-176z M-23.7-149l-19.1-27.7h18.9L-4.6-149H-23.7z"/>
	<path class="st0" d="M27.1-148.1c-6.7,0-12.6-1.3-17.6-3.9c-5.1-2.6-9-6.2-11.7-10.7c-2.8-4.5-4.1-9.7-4.1-15.5
		c0-5.9,1.4-11.1,4.1-15.6c2.7-4.5,6.4-8.1,11.2-10.7s10.1-3.9,16-3.9c5.7,0,10.9,1.2,15.5,3.6c4.6,2.4,8.3,5.9,11,10.5
		c2.7,4.5,4,10,4,16.3c0,0.6,0,1.4-0.1,2.2c-0.1,0.8-0.1,1.6-0.2,2.3H7.4v-9.9h38.7l-6.5,2.9c0-3.1-0.6-5.7-1.9-8
		c-1.2-2.2-2.9-4-5.1-5.3c-2.2-1.3-4.7-1.9-7.6-1.9s-5.5,0.6-7.7,1.9c-2.2,1.3-3.9,3.1-5.2,5.3c-1.2,2.3-1.9,5-1.9,8.1v2.6
		c0,3.2,0.7,6,2.1,8.4c1.4,2.4,3.4,4.3,6,5.6s5.6,1.9,9.1,1.9c3.1,0,5.9-0.5,8.2-1.4l0.1,0c4.5-1.8,9.7-0.6,13,2.9l2.5,2.6
		c-2.7,3.1-6.1,5.4-10.1,7C37.1-148.9,32.4-148.1,27.1-148.1z"/>
	<path class="st0" d="M93.7-208.5c4.6,0,8.8,0.9,12.5,2.8c3.7,1.8,6.6,4.7,8.7,8.5c2.1,3.8,3.2,8.7,3.2,14.7v33.6h-17v-30.9
		c0-4.7-1-8.2-3.1-10.5c-2.1-2.2-5-3.4-8.8-3.4c-2.7,0-5.1,0.6-7.2,1.7c-2.1,1.1-3.8,2.9-5,5.2c-1.2,2.3-1.8,5.3-1.8,8.9v29H58
		v-42.4c0-9,7.3-16.2,16.2-16.2l0,0v16.2l-3-4.9c2.1-3.9,5.1-6.9,9-9.1C84.2-207.4,88.7-208.5,93.7-208.5z"/>
	<path class="st0" d="M117.6-193.2v-13.1h40.6v13.1H117.6z M148.6-148.1c-6.9,0-12.3-1.8-16.1-5.3c-3.9-3.5-5.8-8.8-5.8-15.8v-51.4
		l0,0c9.4,0,17,7.6,17,17v34.2c0,2.5,0.6,4.4,2,5.7c1.3,1.4,3.1,2,5.3,2h0.1c4.6,0,8.7,2.8,10.3,7.1l1,2.7c-1.7,1.2-3.8,2.2-6.3,2.8
		C153.7-148.4,151.2-148.1,148.6-148.1z"/>
	<path d="M201.1-148.4c-5.7,0-10.9-1-15.8-2.9c-4.8-1.9-9-4.6-12.6-8.2c-3.6-3.5-6.4-7.6-8.3-12.3c-2-4.7-2.9-9.8-2.9-15.3
		s1-10.6,2.9-15.3c2-4.7,4.7-8.8,8.3-12.3c3.6-3.5,7.8-6.2,12.6-8.2c4.8-1.9,10.1-2.9,15.8-2.9s10.9,1,15.8,2.9
		c4.8,1.9,9,4.6,12.6,8.1c3.6,3.5,6.3,7.6,8.3,12.3s3,9.8,3,15.4c0,5.6-1,10.7-3,15.4c-2,4.7-4.8,8.8-8.3,12.3
		c-3.6,3.5-7.8,6.2-12.6,8.1C212.1-149.4,206.8-148.4,201.1-148.4z M201.1-153.5c4.9,0,9.4-0.8,13.5-2.5c4.1-1.7,7.7-4,10.8-7.1
		s5.4-6.6,7.1-10.7c1.7-4.1,2.6-8.5,2.6-13.3c0-4.9-0.9-9.3-2.6-13.4s-4.1-7.6-7.1-10.6s-6.6-5.4-10.8-7.1s-8.6-2.5-13.5-2.5
		c-4.9,0-9.4,0.8-13.5,2.5c-4.1,1.7-7.8,4-10.8,7.1c-3.1,3.1-5.5,6.6-7.2,10.6c-1.7,4-2.6,8.5-2.6,13.4c0,4.8,0.9,9.2,2.6,13.3
		s4.1,7.6,7.2,10.7c3.1,3.1,6.7,5.4,10.8,7.1C191.8-154.4,196.3-153.5,201.1-153.5z"/>
	<path d="M260.8-149l-21.6-56.9l0,0c3.1,0,6,1.9,7.1,4.9l18.2,48.9h-2.3l20.6-53.8l0,0c2.8,0,5.3,1.7,6.3,4.4l18.8,49.5h-2.4
		l18.6-49.2c1.1-2.8,3.8-4.7,6.8-4.7l0,0L309.4-149h-5.1l-20-51.7h1.7L265.8-149H260.8z"/>
	<path d="M334.9-154.4v-75.4l0,0c3,0,5.5,2.4,5.5,5.4v75.4l0,0C337.3-149,334.9-151.4,334.9-154.4z"/>
</g>
<g>
	<g>
		<path class="st1" d="M63.9,164.2c7.4,17.1,13.3,38.7,14.5,43.2c0.1,0.5,0.6,0.8,1.1,0.8h1.3c0.6,0,1-0.4,1.2-0.9l2.7-9.3
			c0.1-0.4,0.8-0.5,0.9,0l2.9,9.1c0.2,0.6,0.8,1.1,1.4,1.1h0.9c0.6,0,1.1-0.4,1.2-0.9c1.4-4.5,7.7-25.2,14.5-43.1
			c0.4-1-0.4-2.1-1.5-2.1H65.3C64.2,162.1,63.4,163.2,63.9,164.2z"/>
	</g>
	<g>
		<path class="st2" d="M67.8,158.9c0,0-2.9-4.2-2.6-6.2c0.3-2,1.2-2.9,2.6-2.9c1.3,0,2.1,1.4,2.3,2.5S70.3,155.7,67.8,158.9z"/>
	</g>
	<g>
		<path class="st1" d="M56.7,159.4c0,0-2.9-4.2-2.5-6.2c0.3-2,1.2-2.9,2.5-2.9s2.1,1.4,2.3,2.5C59.2,153.8,59.2,156.2,56.7,159.4z"
			/>
	</g>
	<g>
		<path class="st1" d="M62.2,157.6c0,0-2.5-3.7-2.2-5.4c0.3-1.7,1-2.6,2.2-2.6s1.8,1.2,2,2.1C64.4,152.7,64.4,154.8,62.2,157.6z"/>
	</g>
	<g>
		<path class="st1" d="M114.1,159c0,0-2.9-4.2-2.6-6.2c0.3-2,1.2-2.9,2.6-2.9s2.1,1.4,2.3,2.5C116.6,153.4,116.5,155.8,114.1,159z"
			/>
	</g>
	<g>
		<path class="st1" d="M103,159.5c0,0-2.9-4.2-2.6-6.2s1.2-2.9,2.6-2.9c1.3,0,2.1,1.4,2.3,2.5C105.5,153.9,105.4,156.3,103,159.5z"
			/>
	</g>
	<g>
		<path class="st2" d="M108.5,157.6c0,0-2.5-3.7-2.2-5.4s1-2.6,2.2-2.6c1.2,0,1.8,1.2,2,2.1S110.6,154.9,108.5,157.6z"/>
	</g>
	<g>
		<path class="st0" d="M120.3,153.7c0.1,0,0.2,0,0.3,0c3.8-0.3,7.8,0,11.6,0c3,0,7.6-0.9,10.4,0.4c0.8,0.4,1.4,1.2,1.3,2
			c-0.1,0.7-0.7,1.3-1.4,1.6s-1.4,0.2-2.2,0.2c-2.8,0-8.3-0.1-4.6,3.6c1.7,1.7,4.3,2.4,6.1,4c1.8,1.6,3,3.9,2.9,6.3
			c-0.1,1.6-0.7,3.2-2,4.1s-3.2,0.9-4.4-0.2c-0.7-0.7-1.1-1.7-1.5-2.6c-0.5-0.9-1.3-1.8-2.3-1.8c-1.3,0-2,1.4-2.6,2.5
			s-1.6,2.4-2.8,2.2c-0.5-0.1-0.9-0.5-1.3-0.8c-0.7-0.7-3-3.8-4.2-2.9c-0.5,0.4-0.7,1-0.9,1.5c-0.7,1.6-2.3,2.7-4,2.9
			c-3.2,0.5-5.3-2.3-5.3-5.3c0-4.7,4.8-6.1,8.1-8.2c0.6-0.4,1.2-0.8,1.4-1.4c0.4-1-0.3-2-1.1-2.7c-0.8-0.6-1.8-1-2.5-1.7
			C117.5,155.9,118.3,154,120.3,153.7z"/>
	</g>
	<g>
		<path class="st0" d="M94.6,158.1H74.8c-1.2,0-2.1-0.9-2.1-2.1v-0.3c0-1.2,0.9-2.1,2.1-2.1h19.8c1.2,0,2.1,0.9,2.1,2.1v0.3
			C96.7,157.2,95.8,158.1,94.6,158.1z"/>
	</g>
	<g>
		<path class="st3" d="M81.4,18.4c-2.4,0.1-4.8,0.2-7.2,0.5c-4.7,0.6-8.9,2-13.7,1.3c-3.5-0.5-8.3-2.2-9.8-5.8
			C45,4.4,33.4,5.1,33.4,5.1c3.5,6.9,7.6,14.4,8,22.4c0.5,8.6-3.1,17.5-3.8,26.1C37,61,39.9,68.7,38,76c-1.6,6.2-8.6,8.6-10.9,14.8
			c-4.8,12.6-0.4,28.6,4.3,40.6c1.8,4.6,10.4,1.5,14.6,3.5c4.6,2.2,7.5,12.6,12.7,11.6c1.5-0.3,3-0.9,4.5-0.8
			c1.2,0.1,2.2,0.7,3.2,1.2c7.9,3.9,21.8,5.7,30.3,2.8c3.7-1.3,6.6-3.9,10.8-4.1c8.6-0.5,18.6,10.9,24.8-0.1
			c6.4-11.2,10.9-23.6,11.9-36.5c0.6-7.7,1.5-20.8-6.4-25.6c0,0-6-3.7-6.1-9.4c-0.1-5,2-9.7,1.8-14.9c-0.4-11.1-5.9-22.5-3.9-33.5
			c1.3-7.1,3.9-14,6.9-20.5c0,0-4.6-1.9-10.4,1.9c-4.8,3.1-7.1,9.2-12,12.2c-6.9,4.1-17.6-0.2-25.1-0.6C86.6,18.4,84,18.4,81.4,18.4
			z"/>
	</g>
	<g>
		<path class="st0" d="M41.3,174.2c-1.4,0-2.9-0.2-4.5-0.7c-3-0.8-5.9-2.8-8.4-5.9c-0.7-0.9-1.7-0.9-2-0.9l-0.7,0.2l-0.6-0.2
			c-9.6-1.6-12.2-8.7-12.2-12.2c0-7.3,3.4-10.8,6.3-12.5c1.6-0.9,3.2-1.4,4.8-1.9c2.2-0.6,3.6-1.4,5-2.4c0.4-0.3,0.9-0.8,1.3-1.2
			c1-1,2.2-2.1,3.8-2.9c2.4-1.2,5.1-1.6,8.2-1.1c4,0.6,7.5,3.2,9.4,6.9c1.9,3.6,1.4,7.1,1,10c-0.1,0.6-0.2,1.2-0.2,1.9
			c-0.2,1.9,0,4.2,0.5,6.4c1.1,4.9-0.2,11.6-4.7,14.4C46,173.6,43.7,174.2,41.3,174.2z M26.5,159.5c2.2,0,5.2,0.8,7.6,3.6
			c1.5,1.8,3.1,3,4.6,3.4c2.8,0.8,4.2,0.4,5.7-0.5c1.2-0.8,2-4,1.4-6.5c-0.7-3-0.9-6.1-0.6-8.9c0.1-0.8,0.2-1.5,0.3-2.1
			c0.4-2.5,0.5-4-0.2-5.4c-0.9-1.6-2.4-2.8-4.1-3.1c-1.6-0.2-2.8-0.1-3.7,0.3l0,0c-0.6,0.3-1.3,1-2.1,1.7c-0.6,0.5-1.2,1.1-1.8,1.6
			c-2.1,1.6-4.4,2.8-7.4,3.7c-1.2,0.4-2.3,0.7-3.2,1.2c-0.6,0.4-2.6,1.5-2.6,6c0,0.7,0.5,3.9,5.6,5C26,159.5,26.2,159.5,26.5,159.5z
			"/>
	</g>
	<g>
		<path class="st2" d="M114,92.1c-5.5,1-10.9,3.3-14.3,5.6c-1.1,0.7-13.8,10.8-13.8,10.8c-8-7-17.8-16.7-29.1-17.5
			c-9.4-0.7-19.8,6.3-17.1,16.6c2.2,8.3,8,15.6,14.7,20.7c22.1,16.9,51,14.8,69.9-6.1c5.2-5.8,10.6-14.7,7.8-22.9
			C129.4,91.7,120.9,90.9,114,92.1z"/>
	</g>
	<g>
		<g>
			<g>
				<path class="st0" d="M76.8,53.9c6.1,9.4-4.4,17.2-14.2,17.2s-17.8-8-17.8-17.8S53.9,37.8,59.3,37C64.3,36.2,70.7,44.4,76.8,53.9
					z"/>
			</g>
			<g>
				<g>
					<circle class="st4" cx="62.6" cy="53.9" r="11.7"/>
				</g>
				<g>
					<circle class="st3" cx="62.6" cy="53.5" r="6.4"/>
				</g>
			</g>
			<g>
				<circle class="st4" cx="63.5" cy="50.5" r="2.3"/>
			</g>
		</g>
		<g>
			<g>
				<path class="st0" d="M94,53.4c-6.1,9.4,4.4,17.2,14.2,17.2s17.8-8,17.8-17.8s-9.2-15.4-14.6-16.3C106.6,35.7,100.1,43.9,94,53.4
					z"/>
			</g>
			<g>
				<g>
					<circle class="st4" cx="108.2" cy="53.4" r="11.7"/>
				</g>
				<g>
					<circle class="st3" cx="108.2" cy="53" r="6.4"/>
				</g>
			</g>
			<g>
				<circle class="st4" cx="107.4" cy="50" r="2.3"/>
			</g>
		</g>
		<g>
			<path class="st0" d="M84.8,68.4c0,0-8.9,1.7-4.2,13.3s5.1,8.7,5.7,7.9c0.6-0.7,6.8-11.8,5.1-15.8C89.7,69.7,86.6,67.7,84.8,68.4z
				"/>
		</g>
	</g>
</g>
</svg>
