<?xml version="1.0" encoding="utf-8"?>
<!-- Generator: Adobe Illustrator 26.4.1, SVG Export Plug-In . SVG Version: 6.00 Build 0)  -->
<svg version="1.1" id="Layer_1" xmlns="http://www.w3.org/2000/svg" xmlns:xlink="http://www.w3.org/1999/xlink" x="0px" y="0px"
	 viewBox="0 0 598.41 252.14" style="enable-background:new 0 0 598.41 252.14;" xml:space="preserve">
<style type="text/css">
	.st0{fill:#F7BF12;}
	.st1{fill:#121212;}
	.st2{fill:#8F8F8F;}
	.st3{fill:#181818;}
	.st4{fill:#FFFFFF;}
</style>
<g>
	<g>
		<path class="st0" d="M157.14,155.03V96.39h33.02c6.83,0,12.71,1.11,17.66,3.32c4.94,2.22,8.76,5.4,11.44,9.54
			c2.69,4.14,4.03,9.08,4.03,14.82c0,5.67-1.35,10.56-4.03,14.66c-2.69,4.11-6.5,7.25-11.44,9.43c-4.94,2.18-10.83,3.27-17.66,3.27
			h-23.22l7.85-7.74v28.99h0C165.05,172.68,157.14,164.78,157.14,155.03z M174.8,145.65l-7.85-8.28h22.23
			c5.45,0,9.52-1.18,12.21-3.54c2.69-2.36,4.03-5.61,4.03-9.75c0-4.21-1.35-7.48-4.03-9.81c-2.69-2.32-6.76-3.49-12.21-3.49h-22.23
			l7.85-8.39V145.65z M205.64,172.68L186.57,145h18.86l19.29,27.68H205.64z"/>
		<path class="st0" d="M256.43,173.55c-6.69,0-12.55-1.31-17.6-3.92c-5.05-2.62-8.96-6.19-11.72-10.74
			c-2.76-4.54-4.14-9.72-4.14-15.53c0-5.89,1.36-11.1,4.09-15.64c2.73-4.54,6.45-8.1,11.17-10.68c4.72-2.58,10.06-3.87,16.02-3.87
			c5.74,0,10.92,1.22,15.53,3.65c4.61,2.44,8.26,5.92,10.95,10.46c2.69,4.54,4.03,9.97,4.03,16.29c0,0.65-0.04,1.4-0.11,2.23
			c-0.07,0.84-0.15,1.62-0.22,2.34h-47.63v-9.92h38.69l-6.54,2.94c0-3.05-0.62-5.7-1.85-7.96c-1.24-2.25-2.94-4.01-5.12-5.29
			c-2.18-1.27-4.72-1.91-7.63-1.91c-2.91,0-5.47,0.64-7.68,1.91c-2.22,1.27-3.94,3.05-5.18,5.34c-1.24,2.29-1.85,5-1.85,8.12v2.62
			c0,3.2,0.71,6.01,2.12,8.45c1.42,2.44,3.41,4.29,5.99,5.56c2.58,1.27,5.61,1.91,9.1,1.91c3.12,0,5.87-0.47,8.23-1.42l0.07-0.03
			c4.53-1.82,9.71-0.65,13.01,2.93l2.45,2.65c-2.69,3.05-6.07,5.4-10.14,7.03C266.42,172.74,261.73,173.55,256.43,173.55z"/>
		<path class="st0" d="M323.02,113.17c4.65,0,8.81,0.93,12.48,2.78c3.67,1.85,6.56,4.69,8.67,8.5c2.11,3.81,3.16,8.7,3.16,14.66
			v33.57h-17v-30.95c0-4.72-1.04-8.21-3.11-10.46c-2.07-2.25-5-3.38-8.77-3.38c-2.69,0-5.11,0.56-7.25,1.69
			c-2.14,1.13-3.81,2.85-5.01,5.18c-1.2,2.33-1.8,5.3-1.8,8.94v28.99h-17v-42.4c0-8.97,7.27-16.24,16.24-16.24l0,0v16.24l-3.05-4.9
			c2.11-3.92,5.12-6.94,9.05-9.05C313.54,114.23,318.01,113.17,323.02,113.17z"/>
		<path class="st0" d="M347,128.43v-13.08h40.65v13.08H347z M377.96,173.55c-6.9,0-12.28-1.76-16.13-5.29
			c-3.85-3.52-5.78-8.77-5.78-15.75v-51.44h0c9.39,0,17,7.61,17,17v34.22c0,2.47,0.65,4.38,1.96,5.72c1.31,1.35,3.09,2.02,5.34,2.02
			l0.08,0c4.58-0.01,8.69,2.81,10.33,7.09l1.04,2.72c-1.74,1.24-3.83,2.16-6.27,2.78C383.09,173.24,380.57,173.55,377.96,173.55z"/>
		<path d="M430.49,173.23c-5.67,0-10.92-0.96-15.75-2.89c-4.83-1.92-9.05-4.65-12.64-8.17c-3.6-3.52-6.38-7.63-8.34-12.32
			c-1.96-4.69-2.94-9.79-2.94-15.31c0-5.52,0.98-10.63,2.94-15.31c1.96-4.69,4.74-8.79,8.34-12.32c3.6-3.52,7.81-6.25,12.64-8.17
			c4.83-1.92,10.08-2.89,15.75-2.89c5.67,0,10.92,0.96,15.75,2.89c4.83,1.93,9.03,4.63,12.59,8.12c3.56,3.49,6.34,7.57,8.34,12.26
			c2,4.69,3,9.83,3,15.42c0,5.6-1,10.74-3,15.42c-2,4.69-4.78,8.77-8.34,12.26c-3.56,3.49-7.76,6.2-12.59,8.12
			C441.41,172.27,436.16,173.23,430.49,173.23z M430.49,168.1c4.87,0,9.37-0.83,13.51-2.51c4.14-1.67,7.74-4.03,10.79-7.08
			s5.43-6.61,7.14-10.68c1.71-4.07,2.56-8.5,2.56-13.3c0-4.87-0.85-9.32-2.56-13.35c-1.71-4.03-4.09-7.57-7.14-10.63
			s-6.65-5.41-10.79-7.08c-4.14-1.67-8.65-2.51-13.51-2.51c-4.87,0-9.37,0.84-13.52,2.51c-4.14,1.67-7.76,4.03-10.84,7.08
			c-3.09,3.05-5.49,6.59-7.19,10.63c-1.71,4.03-2.56,8.48-2.56,13.35c0,4.8,0.85,9.23,2.56,13.3c1.71,4.07,4.1,7.63,7.19,10.68
			c3.09,3.05,6.7,5.41,10.84,7.08C421.12,167.27,425.62,168.1,430.49,168.1z"/>
		<path d="M490.11,172.68l-21.58-56.89l0,0c3.15,0,5.96,1.95,7.06,4.9l18.23,48.94h-2.29l20.6-53.84l0,0c2.82,0,5.35,1.74,6.35,4.38
			l18.82,49.46h-2.4l18.61-49.15c1.07-2.82,3.77-4.69,6.79-4.69l0,0l-21.58,56.89h-5.12l-20.05-51.66h1.74l-20.16,51.66H490.11z"/>
		<path d="M564.22,167.23V91.81l0,0c3.01,0,5.45,2.44,5.45,5.45v75.42l0,0C566.66,172.68,564.22,170.24,564.22,167.23z"/>
	</g>
	<g>
		<g>
			<path class="st1" d="M67.32,183.58c7.43,17.09,13.32,38.67,14.51,43.15c0.13,0.5,0.58,0.84,1.1,0.84h1.26
				c0.56,0,1.04-0.37,1.2-0.9l2.71-9.27c0.13-0.45,0.77-0.46,0.92-0.01l2.88,9.11c0.2,0.63,0.79,1.07,1.45,1.07h0.9
				c0.57,0,1.06-0.37,1.23-0.91c1.36-4.54,7.65-25.22,14.46-43.14c0.39-1.02-0.36-2.12-1.46-2.12H68.74
				C67.62,181.41,66.87,182.55,67.32,183.58z"/>
		</g>
		<g>
			<path class="st2" d="M71.23,178.25c0,0-2.86-4.22-2.55-6.2c0.32-1.99,1.19-2.94,2.55-2.94c1.35,0,2.07,1.35,2.31,2.47
				S73.72,175.1,71.23,178.25z"/>
		</g>
		<g>
			<path class="st1" d="M60.12,178.76c0,0-2.86-4.22-2.55-6.2c0.32-1.99,1.19-2.94,2.55-2.94s2.07,1.35,2.31,2.47
				C62.67,173.19,62.61,175.6,60.12,178.76z"/>
		</g>
		<g>
			<path class="st1" d="M65.63,176.93c0,0-2.49-3.67-2.21-5.4c0.28-1.73,1.04-2.56,2.21-2.56s1.8,1.18,2.01,2.14
				C67.84,172.09,67.79,174.19,65.63,176.93z"/>
		</g>
		<g>
			<path class="st1" d="M117.49,178.32c0,0-2.86-4.22-2.55-6.2c0.32-1.99,1.19-2.94,2.55-2.94s2.07,1.35,2.31,2.47
				C120.04,172.75,119.98,175.16,117.49,178.32z"/>
		</g>
		<g>
			<path class="st1" d="M106.39,178.82c0,0-2.86-4.22-2.55-6.2s1.19-2.94,2.55-2.94c1.35,0,2.07,1.35,2.31,2.47
				C108.93,173.25,108.88,175.66,106.39,178.82z"/>
		</g>
		<g>
			<path class="st2" d="M111.89,177c0,0-2.49-3.67-2.21-5.4s1.04-2.56,2.21-2.56c1.18,0,1.8,1.18,2.01,2.14
				S114.05,174.25,111.89,177z"/>
		</g>
		<g>
			<path class="st0" d="M123.74,173.07c0.11-0.02,0.23-0.03,0.35-0.04c3.84-0.26,7.8-0.01,11.65-0.02c3-0.01,7.56-0.92,10.35,0.35
				c0.79,0.36,1.44,1.17,1.32,2.02c-0.1,0.73-0.72,1.3-1.41,1.55s-1.45,0.24-2.18,0.23c-2.84-0.04-8.34-0.13-4.63,3.61
				c1.73,1.74,4.29,2.38,6.06,3.99c1.76,1.59,2.96,3.89,2.89,6.26c-0.05,1.58-0.72,3.2-2.01,4.12s-3.24,0.94-4.38-0.16
				c-0.73-0.7-1.05-1.72-1.52-2.62c-0.48-0.9-1.28-1.78-2.3-1.75c-1.27,0.03-2.03,1.39-2.59,2.53c-0.56,1.14-1.55,2.43-2.79,2.17
				c-0.52-0.11-0.94-0.47-1.34-0.83c-0.73-0.67-2.96-3.79-4.2-2.86c-0.48,0.36-0.67,0.98-0.93,1.53c-0.74,1.56-2.3,2.7-4,2.94
				c-3.2,0.46-5.32-2.28-5.35-5.28c-0.04-4.69,4.77-6.11,8.12-8.25c0.57-0.36,1.16-0.77,1.4-1.4c0.36-0.96-0.26-2.02-1.06-2.66
				c-0.8-0.64-1.78-1.03-2.54-1.71C120.95,175.27,121.76,173.4,123.74,173.07z"/>
		</g>
		<g>
			<path class="st0" d="M98.04,177.46H78.19c-1.16,0-2.11-0.94-2.11-2.11v-0.29c0-1.16,0.94-2.11,2.11-2.11h19.84
				c1.16,0,2.11,0.94,2.11,2.11v0.29C100.15,176.52,99.2,177.46,98.04,177.46z"/>
		</g>
		<g>
			<path class="st3" d="M84.87,37.78c-2.39,0.06-4.78,0.22-7.15,0.53c-4.71,0.61-8.94,2-13.74,1.31c-3.55-0.51-8.28-2.2-9.83-5.85
				c-5.73-9.97-17.29-9.28-17.29-9.28c3.5,6.94,7.59,14.44,8,22.37c0.45,8.57-3.06,17.48-3.77,26.05
				c-0.62,7.41,2.22,15.19,0.35,22.44c-1.6,6.21-8.55,8.59-10.93,14.79c-4.84,12.61-0.44,28.63,4.34,40.64
				c1.82,4.57,10.43,1.52,14.57,3.53c4.61,2.25,7.53,12.59,12.65,11.65c1.52-0.28,3-0.94,4.54-0.77c1.16,0.13,2.2,0.72,3.25,1.25
				c7.87,3.95,21.83,5.74,30.31,2.78c3.73-1.3,6.63-3.9,10.79-4.14c8.58-0.5,18.62,10.85,24.84-0.1
				c6.35-11.17,10.9-23.65,11.9-36.53c0.59-7.65,1.51-20.78-6.38-25.62c0,0-6.04-3.71-6.15-9.44c-0.09-5.02,1.96-9.74,1.8-14.87
				c-0.36-11.08-5.93-22.47-3.87-33.5c1.32-7.07,3.85-14.03,6.95-20.52c0,0-4.56-1.85-10.39,1.87c-4.81,3.06-7.07,9.24-12.03,12.21
				c-6.89,4.13-17.64-0.18-25.06-0.61C90.02,37.79,87.44,37.72,84.87,37.78z"/>
		</g>
		<g>
			<path class="st0" d="M44.7,193.59c-1.42,0-2.92-0.22-4.55-0.66c-3.03-0.81-5.85-2.79-8.39-5.87c-0.74-0.9-1.67-0.9-1.97-0.87
				l-0.72,0.19l-0.56-0.18c-9.58-1.61-12.17-8.7-12.2-12.23c0-7.3,3.41-10.8,6.27-12.46c1.58-0.92,3.23-1.45,4.78-1.92
				c2.16-0.65,3.65-1.39,5.01-2.45c0.43-0.33,0.87-0.76,1.35-1.2c1.04-0.97,2.21-2.08,3.78-2.89c2.37-1.22,5.07-1.56,8.25-1.05
				c3.95,0.64,7.47,3.21,9.42,6.88c1.92,3.6,1.39,7.14,0.97,9.98c-0.1,0.64-0.19,1.25-0.25,1.85c-0.21,1.94-0.05,4.22,0.46,6.42
				c1.13,4.9-0.15,11.62-4.74,14.43C49.41,192.92,47.17,193.59,44.7,193.59z M29.91,178.81c2.17,0,5.24,0.76,7.55,3.56
				c1.52,1.84,3.11,3.03,4.61,3.43c2.82,0.76,4.17,0.4,5.69-0.53c1.25-0.77,1.96-4.04,1.4-6.47c-0.7-3.02-0.91-6.09-0.61-8.87
				c0.08-0.75,0.19-1.46,0.29-2.14c0.38-2.54,0.55-4.04-0.18-5.43c-0.86-1.62-2.43-2.79-4.09-3.06c-1.57-0.25-2.78-0.15-3.69,0.32
				l0,0c-0.64,0.33-1.35,1-2.1,1.7c-0.57,0.54-1.16,1.09-1.85,1.63c-2.09,1.64-4.39,2.79-7.43,3.71c-1.18,0.36-2.32,0.72-3.22,1.24
				c-0.64,0.37-2.57,1.49-2.59,5.97c0.05,0.74,0.55,3.93,5.55,4.96C29.46,178.82,29.68,178.81,29.91,178.81z"/>
		</g>
		<g>
			<path class="st2" d="M117.42,111.47c-5.47,0.98-10.89,3.26-14.35,5.59c-1.08,0.73-13.83,10.78-13.8,10.81
				c-8-7.04-17.84-16.7-29.13-17.52c-9.41-0.68-19.81,6.29-17.09,16.63c2.19,8.35,7.95,15.6,14.71,20.75
				c22.12,16.86,51.02,14.77,69.87-6.13c5.19-5.76,10.6-14.66,7.82-22.89C132.84,111.06,124.32,110.23,117.42,111.47z"/>
		</g>
		<g>
			<g>
				<g>
					<path class="st0" d="M80.28,73.27c6.07,9.38-4.4,17.18-14.24,17.18s-17.81-7.97-17.81-17.81s9.15-15.44,14.55-16.31
						C67.71,55.53,74.14,63.78,80.28,73.27z"/>
				</g>
				<g>
					<g>
						<circle class="st4" cx="66.04" cy="73.27" r="11.65"/>
					</g>
					<g>
						<circle class="st3" cx="66.04" cy="72.87" r="6.36"/>
					</g>
				</g>
				<g>
					<circle class="st4" cx="66.92" cy="69.85" r="2.31"/>
				</g>
			</g>
			<g>
				<g>
					<path class="st0" d="M97.42,72.78c-6.07,9.38,4.4,17.18,14.24,17.18s17.81-7.97,17.81-17.81s-9.15-15.44-14.55-16.31
						C109.99,55.05,103.56,63.29,97.42,72.78z"/>
				</g>
				<g>
					<g>
						<circle class="st4" cx="111.66" cy="72.78" r="11.65"/>
					</g>
					<g>
						<circle class="st3" cx="111.66" cy="72.39" r="6.36"/>
					</g>
				</g>
				<g>
					<circle class="st4" cx="110.79" cy="69.37" r="2.31"/>
				</g>
			</g>
			<g>
				<path class="st0" d="M88.23,87.72c0,0-8.91,1.7-4.24,13.26s5.09,8.7,5.73,7.95c0.64-0.74,6.79-11.77,5.09-15.8
					C93.11,89.1,90.02,87.05,88.23,87.72z"/>
			</g>
		</g>
	</g>
</g>
</svg>
